<svg width="71" height="71" viewBox="0 0 71 71" fill="none" xmlns="http://www.w3.org/2000/svg">
<rect x="0.5" y="0.5" width="70" height="70" rx="35" fill="white"/>
<rect x="0.5" y="0.5" width="70" height="70" rx="35" stroke="#1BCF4B"/>
<path fill-rule="evenodd" clip-rule="evenodd" d="M23.7731 27.3096C24.1874 26.8968 24.8513 26.8968 25.2656 27.3096L28.6771 30.8702C30.6911 29.8143 33.0661 29.3125 35.5 29.3125C37.9339 29.3125 40.3089 29.8143 42.3229 30.8702L45.7344 27.3096C46.1487 26.8968 46.8126 26.8968 47.2269 27.3096C47.6412 27.7224 47.6412 28.4546 47.2269 28.8674L44.0287 31.9829C47.6141 34.6129 49.9987 38.7785 49.9987 43.5549C49.9987 43.6727 50.0016 43.8829 49.9987 44H21.0013C20.9984 43.8829 21.0013 43.6727 21.0013 43.5549C21.0013 38.7785 23.3859 34.6129 26.9713 31.9829L23.7731 28.8674C23.3588 28.4546 23.3588 27.7224 23.7731 27.3096ZM29.7431 39.1042C30.5244 39.1042 31.2357 38.5473 31.2357 37.7689C31.2357 36.9905 30.5244 36.2111 29.7431 36.2111C28.9619 36.2111 28.4638 36.9905 28.4638 37.7689C28.4638 38.5473 28.9619 39.1042 29.7431 39.1042ZM42.5362 37.7689C42.5362 38.5473 42.0381 39.1042 41.2569 39.1042C40.4756 39.1042 39.7643 38.5473 39.7643 37.7689C39.7643 36.9905 40.4756 36.2111 41.2569 36.2111C42.0381 36.2111 42.5362 36.9905 42.5362 37.7689Z" fill="#1BCF4B"/>
</svg>
