<svg width="71" height="71" viewBox="0 0 71 71" fill="none" xmlns="http://www.w3.org/2000/svg">
<rect x="0.5" y="0.5" width="70" height="70" rx="35" fill="white"/>
<rect x="0.5" y="0.5" width="70" height="70" rx="35" stroke="#333333"/>
<path d="M36.7938 23.5237C38.8087 21.0122 41.6099 21 41.6099 21C41.6099 21 42.0266 23.3611 40.0249 25.6357C37.8876 28.0644 35.4582 27.667 35.4582 27.667C35.4582 27.667 35.002 25.7569 36.7938 23.5237ZM35.7145 29.321C36.751 29.321 38.6749 27.9735 41.179 27.9735C45.4893 27.9735 47.185 30.874 47.185 30.874C47.185 30.874 43.8686 32.4775 43.8686 36.3684C43.8686 40.7576 48 42.2703 48 42.2703C48 42.2703 45.112 49.9574 41.2111 49.9574C39.4194 49.9574 38.0264 48.8156 36.1387 48.8156C34.2148 48.8156 32.3057 50 31.0623 50C27.5002 50.0001 23 42.7081 23 36.8465C23 31.0795 26.8091 28.0543 30.3819 28.0543C32.7046 28.0543 34.507 29.321 35.7145 29.321Z" fill="#484848"/>
</svg>
