<svg width="17" height="17" viewBox="0 0 17 17" fill="none" xmlns="http://www.w3.org/2000/svg">
<path d="M4.25 14.3438C4.5434 14.3438 4.78125 14.5816 4.78125 14.875C4.78118 15.1683 4.54336 15.4062 4.25 15.4062H2.83301C2.5398 15.4061 2.30183 15.1682 2.30176 14.875C2.30176 14.5817 2.53976 14.3439 2.83301 14.3438H4.25ZM11.0596 1.66895C11.3112 1.51799 11.6381 1.59997 11.7891 1.85156C11.9399 2.10314 11.858 2.42915 11.6064 2.58008L8.5957 4.38672C8.33579 4.54267 8.12579 4.76991 7.99023 5.04102L7.7832 5.45508C7.67259 5.67631 7.61429 5.92062 7.61426 6.16797V6.55176H10.0938V6.375C10.0938 6.08162 10.3316 5.84379 10.625 5.84375C10.9184 5.84375 11.1562 6.0816 11.1562 6.375V7.79102C11.1562 7.93181 11.1005 8.06738 11.001 8.16699L9.4502 9.71875C9.2025 9.96655 9.20245 10.3685 9.4502 10.6162C9.6641 10.8298 9.99944 10.8631 10.251 10.6953L13.4531 8.55957C13.8505 8.29459 14.1556 7.91193 14.3262 7.46582L15.0869 5.47656C15.1917 5.20257 15.4994 5.06515 15.7734 5.16992C16.0474 5.27476 16.1848 5.58244 16.0801 5.85645L15.3193 7.8457C15.07 8.4977 14.6237 9.05608 14.043 9.44336L13.2812 9.95117V12.75C13.2812 14.217 12.092 15.4062 10.625 15.4062H6.72949C6.43613 15.4062 6.1983 15.1683 6.19824 14.875C6.19824 14.5816 6.43609 14.3438 6.72949 14.3438H10.625C11.5052 14.3438 12.2187 13.6302 12.2188 12.75V10.6592L10.8398 11.5791C10.1668 12.0279 9.27027 11.9392 8.69824 11.3672C8.03585 10.7046 8.03594 9.63047 8.69824 8.96777L10.0508 7.61426H4.60449C3.72435 7.61426 3.01084 8.32789 3.01074 9.20801V10.2705C3.01074 10.5638 2.77274 10.8016 2.47949 10.8018C2.18609 10.8018 1.94824 10.5639 1.94824 10.2705V9.20801C1.94834 7.74109 3.13755 6.55176 4.60449 6.55176H6.55176V6.16797C6.55179 5.7558 6.64776 5.34915 6.83203 4.98047L7.04004 4.56543C7.26597 4.11375 7.61576 3.73542 8.04883 3.47559L11.0596 1.66895ZM4.25 12.2188C4.5434 12.2188 4.78125 12.4566 4.78125 12.75C4.78118 13.0433 4.54336 13.2812 4.25 13.2812H1.41699C1.12364 13.2812 0.885816 13.0433 0.885742 12.75C0.885742 12.4566 1.12359 12.2188 1.41699 12.2188H4.25Z" fill="white"/>
</svg>
