<svg width="69" height="69" viewBox="0 0 69 69" fill="none" xmlns="http://www.w3.org/2000/svg">
<rect x="0.5" y="0.5" width="68" height="68" rx="34" fill="url(#paint0_radial_92_779)"/>
<rect x="0.5" y="0.5" width="68" height="68" rx="34" stroke="#0A1F44"/>
<path d="M20.8024 41.1297L23.0799 41.4864C24.7612 41.7496 25.9619 43.2895 25.8381 45.0243L25.6703 47.3757C25.6214 48.0608 25.9863 48.7057 26.5907 49.004L28.2752 49.8339C28.8796 50.1322 29.6014 50.0205 30.095 49.5556L31.7877 47.9559C33.0357 46.7759 34.9612 46.7759 36.2107 47.9559L37.9033 49.5556C38.397 50.0224 39.1172 50.1322 39.7232 49.8339L41.4108 49.0023C42.0137 48.7057 42.377 48.0624 42.3282 47.3792L42.1602 45.0243C42.0365 43.2895 43.2371 41.7496 44.9183 41.4864L47.1959 41.1297C47.859 41.0265 48.3934 40.5181 48.5432 39.8482L48.9586 37.9851C49.1086 37.3152 48.843 36.6202 48.2891 36.2335L46.3879 34.9019C44.9852 33.9188 44.5567 31.999 45.4039 30.4907L46.5524 28.4476C46.8863 27.8526 46.8311 27.1077 46.4123 26.5711L45.2475 25.0762C44.8288 24.5396 44.1315 24.318 43.4897 24.5196L41.2871 25.2095C39.6597 25.7195 37.9246 24.8646 37.299 23.2464L36.455 21.0582C36.2074 20.4183 35.603 19.9983 34.9302 20L33.0632 20.005C32.3903 20.0067 31.7877 20.43 31.5433 21.0716L30.7205 23.2347C30.1014 24.8629 28.3583 25.7245 26.7259 25.2112L24.4321 24.4913C23.7886 24.288 23.0881 24.5113 22.6694 25.0512L21.5127 26.5477C21.094 27.0894 21.0435 27.836 21.384 28.4309L22.5586 30.479C23.4237 31.9888 23.0001 33.927 21.5893 34.9154L19.7109 36.2319C19.157 36.6202 18.8915 37.3152 19.0413 37.9835L19.4568 39.8466C19.605 40.5181 20.1394 41.0265 20.8024 41.1297Z" stroke="white" stroke-width="1.5" stroke-linecap="round" stroke-linejoin="round"/>
<path d="M37.2917 31.7081C39.1092 33.5258 39.1092 36.4741 37.2917 38.2919C35.4739 40.1095 32.5256 40.1095 30.7078 38.2919C28.8901 36.4741 28.8901 33.5258 30.7078 31.7081C32.5256 29.8904 35.4739 29.8904 37.2917 31.7081Z" stroke="white" stroke-width="1.5" stroke-linecap="round" stroke-linejoin="round"/>
<defs>
<radialGradient id="paint0_radial_92_779" cx="0" cy="0" r="1" gradientUnits="userSpaceOnUse" gradientTransform="translate(33.4558 34.5) scale(35.5442)">
<stop stop-color="#5C768D"/>
<stop offset="1" stop-color="#0A1F44"/>
</radialGradient>
</defs>
</svg>
