<svg width="19" height="19" viewBox="0 0 19 19" fill="none" xmlns="http://www.w3.org/2000/svg">
<path d="M1.94045 11.5517L1.01894 16.6177C0.988192 16.7867 0.99495 16.9604 1.03873 17.1265C1.08251 17.2925 1.16225 17.447 1.2723 17.5788C1.38236 17.7107 1.52004 17.8168 1.67561 17.8895C1.83118 17.9623 2.00084 18 2.17259 18H16.3635C16.5352 18 16.7049 17.9623 16.8605 17.8895C17.016 17.8168 17.1537 17.7107 17.2638 17.5788C17.3738 17.447 17.4536 17.2925 17.4973 17.1265C17.5411 16.9604 17.5479 16.7867 17.5171 16.6177L16.5956 11.5517M9.85453 5.9828C9.85453 6.13827 9.79277 6.28738 9.68283 6.39731C9.5729 6.50725 9.42379 6.56901 9.26832 6.56901C9.11285 6.56901 8.96374 6.50725 8.85381 6.39731C8.74387 6.28738 8.68211 6.13827 8.68211 5.9828C8.68211 5.82733 8.74387 5.67822 8.85381 5.56829C8.96374 5.45835 9.11285 5.39659 9.26832 5.39659C9.42379 5.39659 9.5729 5.45835 9.68283 5.56829C9.79277 5.67822 9.85453 5.82733 9.85453 5.9828ZM14.2508 5.92414C14.2508 9.5 9.26804 13.3103 9.26804 13.3103C9.26804 13.3103 4.28528 9.5 4.28528 5.92414C4.28528 3.20414 6.51638 1 9.26804 1C12.0197 1 14.2508 3.20414 14.2508 5.92414Z" stroke="white" stroke-width="1.5" stroke-linecap="round" stroke-linejoin="round"/>
</svg>
