<?xml version="1.0" encoding="UTF-8" standalone="no"?>
<svg
   xmlns:dc="http://purl.org/dc/elements/1.1/"
   xmlns:cc="http://creativecommons.org/ns#"
   xmlns:rdf="http://www.w3.org/1999/02/22-rdf-syntax-ns#"
   xmlns:svg="http://www.w3.org/2000/svg"
   xmlns="http://www.w3.org/2000/svg"
   xmlns:sodipodi="http://sodipodi.sourceforge.net/DTD/sodipodi-0.dtd"
   xmlns:inkscape="http://www.inkscape.org/namespaces/inkscape"
   width="351"
   height="145"
   viewBox="0 0 351 145"
   fill="none"
   version="1.1"
   id="svg24"
   sodipodi:docname="off_bg.svg"
   inkscape:version="0.92.5 (0.92.5+68)">
  <metadata
     id="metadata30">
    <rdf:RDF>
      <cc:Work
         rdf:about="">
        <dc:format>image/svg+xml</dc:format>
        <dc:type
           rdf:resource="http://purl.org/dc/dcmitype/StillImage" />
      </cc:Work>
    </rdf:RDF>
  </metadata>
  <defs
     id="defs28" />
  <sodipodi:namedview
     pagecolor="#ffffff"
     bordercolor="#666666"
     borderopacity="1"
     objecttolerance="10"
     gridtolerance="10"
     guidetolerance="10"
     inkscape:pageopacity="0"
     inkscape:pageshadow="2"
     inkscape:window-width="1872"
     inkscape:window-height="1030"
     id="namedview26"
     showgrid="false"
     inkscape:zoom="0.77777778"
     inkscape:cx="178.07143"
     inkscape:cy="72.5"
     inkscape:window-x="48"
     inkscape:window-y="0"
     inkscape:window-maximized="1"
     inkscape:current-layer="svg24" />
  <ellipse
     cx="293.54852"
     cy="73"
     id="circle2"
     rx="220.45146"
     ry="190"
     style="fill:#ffffff;fill-opacity:0.1;stroke-width:1.07715869" />
  <ellipse
     cx="288.90744"
     cy="73"
     id="circle4"
     rx="118.34763"
     ry="102"
     style="fill:#ffffff;fill-opacity:0.1;stroke-width:1.07715869" />
  <ellipse
     cx="293.54852"
     cy="73"
     id="circle6"
     rx="167.07901"
     ry="144"
     style="fill:#ffffff;fill-opacity:0.1;stroke-width:1.07715869" />
  <path
     d="m 55.693002,119.985 c 2.256611,-0.088 4.172914,-0.809 5.74891,-2.161 1.575996,-1.353 2.364052,-2.956 2.364052,-4.824 0,1.868 0.78794,3.471 2.364052,4.824 1.575996,1.352 3.4923,2.058 5.766779,2.161 -1.486423,0.059 -2.847537,0.397 -4.10121,1.044 -1.235804,0.633 -2.220758,1.486 -2.955094,2.545 -0.716351,1.058 -1.074527,2.191 -1.074527,3.426 0,-1.868 -0.788056,-3.485 -2.364052,-4.838 -1.575996,-1.368 -3.492299,-2.088 -5.74891,-2.177 z"
     id="path8"
     inkscape:connector-curvature="0"
     style="fill:#efefef;stroke-width:1.07715869" />
  <path
     d="m 98.623025,87.4842 c 2.417775,-0.0945 4.470985,-0.8666 6.159525,-2.3161 1.68866,-1.4496 2.53288,-3.167 2.53288,-5.1681 0,2.0011 0.84433,3.7185 2.53298,5.1681 1.68855,1.4495 3.74176,2.2058 6.17868,2.3161 -1.59271,0.0631 -3.05093,0.4255 -4.39418,1.1187 -1.32398,0.6776 -2.37937,1.5914 -3.16615,2.7259 -0.76752,1.1344 -1.15133,2.3477 -1.15133,3.6712 0,-2.001 -0.84422,-3.7342 -2.53288,-5.1838 -1.68854,-1.4654 -3.74175,-2.2374 -6.159525,-2.332 z"
     id="path10"
     inkscape:connector-curvature="0"
     style="fill:#efefef;stroke-width:1.07715869" />
  <path
     d="m 143.87359,116.625 c 3.26964,-0.135 6.04733,-1.231 8.33074,-3.288 2.28342,-2.058 3.42628,-4.496 3.42628,-7.337 0,2.841 1.14171,5.279 3.42512,7.337 2.28342,2.057 5.06111,3.131 8.35627,3.288 -2.15346,0.089 -4.12592,0.604 -5.9429,1.588 -1.7903,0.962 -3.21743,2.259 -4.2814,3.869 -1.03844,1.611 -1.55709,3.333 -1.55709,5.212 0,-2.841 -1.14286,-5.301 -3.42628,-7.359 -2.28341,-2.08 -5.0611,-3.176 -8.33074,-3.31 z"
     id="path12"
     inkscape:connector-curvature="0"
     style="fill:#efefef;stroke-width:1.07715869" />
  <path
     d="m 40.609481,32.6246 c 3.269991,-0.1342 6.046984,-1.2302 8.330745,-3.288 2.283761,-2.0578 3.4257,-4.4959 3.4257,-7.3366 0,2.8407 1.141938,5.2788 3.425815,7.3366 2.283761,2.0578 5.060638,3.1314 8.356619,3.288 -2.154043,0.0895 -4.126387,0.6039 -5.943139,1.5881 -1.790646,0.9618 -3.218012,2.2591 -4.282096,3.8696 -1.038094,1.6105 -1.557199,3.3328 -1.557199,5.2117 0,-2.8407 -1.141939,-5.3012 -3.4257,-7.359 -2.283761,-2.0802 -5.060754,-3.1762 -8.330745,-3.3104 z"
     id="path14"
     inkscape:connector-curvature="0"
     style="fill:#efefef;stroke-width:1.07715869" />
  <path
     d="m 98.623025,51.6246 c 3.269995,-0.1342 6.046985,-1.2302 8.330745,-3.288 2.28376,-2.0578 3.4257,-4.4959 3.4257,-7.3366 0,2.8407 1.14194,5.2788 3.42582,7.3366 2.28329,2.0578 5.06098,3.1314 8.35615,3.288 -2.15346,0.0895 -4.12592,0.6039 -5.94291,1.5881 -1.79041,0.9618 -3.21778,2.2591 -4.28186,3.8696 -1.0381,1.6105 -1.5572,3.3328 -1.5572,5.2117 0,-2.8407 -1.14194,-5.3012 -3.4257,-7.359 -2.28376,-2.0802 -5.06075,-3.1762 -8.330745,-3.3104 z"
     id="path16"
     inkscape:connector-curvature="0"
     style="fill:#efefef;stroke-width:1.07715869" />
  <path
     d="m 167.07901,68.9895 c 1.61161,-0.063 2.98073,-0.5777 4.1062,-1.5441 1.12546,-0.9664 1.68819,-2.1114 1.68819,-3.4454 0,1.334 0.56389,2.479 1.68935,3.4454 1.12547,0.9664 2.49459,1.4706 4.11897,1.5441 -1.06165,0.042 -2.03396,0.2836 -2.92969,0.7458 -0.88296,0.4517 -1.58609,1.0609 -2.11053,1.8172 -0.51168,0.7563 -0.7681,1.5651 -0.7681,2.4475 0,-1.334 -0.56273,-2.4895 -1.68819,-3.4559 -1.12547,-0.9769 -2.49459,-1.4916 -4.1062,-1.5546 z"
     id="path18"
     inkscape:connector-curvature="0"
     style="fill:#efefef;stroke-width:1.07715869" />
  <path
     d="M 0,79.6246 C 3.2700146,79.4904 6.0469257,78.3944 8.3307449,76.3366 10.614564,74.2788 11.756445,71.8407 11.756445,69 c 0,2.8407 1.141938,5.2788 3.425815,7.3366 2.283762,2.0578 5.060638,3.1314 8.356619,3.288 -2.154042,0.0895 -4.126387,0.6039 -5.943139,1.5881 -1.790646,0.9618 -3.218011,2.2591 -4.282096,3.8696 -1.038094,1.6105 -1.557199,3.3328 -1.557199,5.2117 0,-2.8407 -1.141881,-5.3012 -3.4257001,-7.359 C 6.0469257,80.8548 3.2700146,79.7588 0,79.6246 Z"
     id="path20"
     inkscape:connector-curvature="0"
     style="fill:#efefef;stroke-width:1.07715869" />
  <path
     d="m 138.07223,21.9895 c 1.61162,-0.063 2.98074,-0.5777 4.1062,-1.5441 1.12547,-0.9664 1.6882,-2.1114 1.6882,-3.4454 0,1.334 0.56389,2.479 1.68935,3.4454 1.12546,0.9664 2.49458,1.4706 4.11896,1.5441 -1.06164,0.042 -2.03395,0.2836 -2.92968,0.7458 -0.88297,0.4517 -1.58609,1.0609 -2.11053,1.8172 -0.51168,0.7563 -0.7681,1.5651 -0.7681,2.4475 0,-1.334 -0.56273,-2.4895 -1.6882,-3.4559 -1.12546,-0.9769 -2.49458,-1.4916 -4.1062,-1.5546 z"
     id="path22"
     inkscape:connector-curvature="0"
     style="fill:#efefef;stroke-width:1.07715869" />
</svg>
