<svg width="369" height="145" viewBox="0 0 369 145" fill="none" xmlns="http://www.w3.org/2000/svg">
<circle cx="77" cy="73" r="190" fill="white" fill-opacity="0.1"/>
<circle cx="73" cy="73" r="102" fill="white" fill-opacity="0.1"/>
<circle cx="77" cy="73" r="144" fill="white" fill-opacity="0.1"/>
<path fill-rule="evenodd" clip-rule="evenodd" d="M401 39C401 58.3924 390.585 75.3522 375.043 84.5909C381.241 91.6361 385 100.879 385 111C385 133.091 367.091 151 345 151C340.109 151 335.423 150.122 331.092 148.516C327.189 166.516 311.169 180 292 180C282.455 180 273.69 176.656 266.814 171.077C261.396 186.746 246.512 198 229 198C215.3 198 203.209 191.113 196 180.612C188.791 191.113 176.7 198 163 198C156.651 198 150.648 196.521 145.316 193.889C137.988 203.097 126.683 209 114 209C99.1432 209 86.1783 200.9 79.2799 188.876C73.1167 192.756 65.8205 195 58 195C35.9086 195 18 177.091 18 155C18 132.909 35.9086 115 58 115C72.8568 115 85.8217 123.1 92.7201 135.124C98.8833 131.244 106.18 129 114 129C120.349 129 126.352 130.479 131.684 133.111C139.012 123.903 150.317 118 163 118C176.7 118 188.791 124.887 196 135.388C203.209 124.887 215.3 118 229 118C238.545 118 247.31 121.344 254.186 126.923C259.604 111.254 274.488 100 292 100C296.891 100 301.577 100.878 305.908 102.484C307.618 94.5982 311.654 87.5789 317.261 82.1806C303.786 72.571 295 56.8116 295 39C295 9.72891 318.729 -14 348 -14C377.271 -14 401 9.72891 401 39Z" fill="#F3FDFF"/>
<path fill-rule="evenodd" clip-rule="evenodd" d="M375 20.5C375 42.2205 363.163 61.1762 345.587 71.2677C349.644 77.5249 352 84.9873 352 93C352 115.091 334.091 133 312 133C309.831 133 307.701 132.827 305.626 132.495C302.948 151.986 286.227 167 266 167C259.955 167 254.224 165.659 249.087 163.259C243.91 179.353 228.815 191 211 191C195.151 191 181.455 181.782 174.98 168.415C167.991 174.391 158.917 178 149 178C139.414 178 130.616 174.628 123.726 169.006C116.487 179.285 104.528 186 91 186C70.7871 186 54.076 171.008 51.38 151.536C45.8767 154.389 39.6265 156 33 156C10.9086 156 -7 138.091 -7 116C-7 93.9086 10.9086 76 33 76C53.2128 76 69.924 90.9924 72.6199 110.464C78.1233 107.611 84.3735 106 91 106C100.586 106 109.384 109.372 116.274 114.994C123.513 104.715 135.472 98 149 98C164.849 98 178.545 107.218 185.02 120.585C192.009 114.609 201.083 111 211 111C217.045 111 222.776 112.341 227.913 114.741C233.09 98.6466 248.185 87 266 87C268.169 87 270.299 87.1727 272.374 87.5051C273.424 79.8628 276.633 72.9089 281.366 67.2784C267.176 56.604 258 39.6236 258 20.5C258 -11.8087 284.191 -38 316.5 -38C348.809 -38 375 -11.8087 375 20.5Z" fill="#F3FDFF" fill-opacity="0.6"/>
</svg>
