<svg width="40" height="40" viewBox="0 0 40 40" fill="none" xmlns="http://www.w3.org/2000/svg">
<rect width="40" height="40" rx="20" fill="url(#paint0_linear_92_1061)"/>
<path d="M12.1035 18.5325C12.1035 18.5325 20.0645 15.2398 22.8255 14.0803C23.8839 13.6165 27.4733 12.1324 27.4733 12.1324C27.4733 12.1324 29.1299 11.4832 28.9918 13.06C28.9458 13.7093 28.5777 15.9818 28.2095 18.4398C27.6573 21.9181 27.0591 25.7211 27.0591 25.7211C27.0591 25.7211 26.9671 26.7878 26.1848 26.9733C25.4025 27.1588 24.114 26.324 23.8839 26.1385C23.6998 25.9994 20.4326 23.9123 19.2362 22.892C18.9141 22.6138 18.5459 22.0573 19.2822 21.408C20.9388 19.8775 22.9175 17.976 24.114 16.7702C24.6662 16.2137 25.2184 14.9151 22.9175 16.4919C19.6504 18.7644 16.4292 20.8978 16.4292 20.8978C16.4292 20.8978 15.6929 21.3616 14.3124 20.9442C12.9318 20.5268 11.3212 19.9703 11.3212 19.9703C11.3212 19.9703 10.2169 19.2746 12.1035 18.5325Z" fill="white"/>
<defs>
<linearGradient id="paint0_linear_92_1061" x1="20" y1="0" x2="20" y2="40" gradientUnits="userSpaceOnUse">
<stop stop-color="#00ACFF"/>
<stop offset="1" stop-color="#0098E1"/>
</linearGradient>
</defs>
</svg>
