<svg width="40" height="40" viewBox="0 0 40 40" fill="none" xmlns="http://www.w3.org/2000/svg">
<rect width="40" height="40" rx="20" fill="#00D95F"/>
<path d="M20.0024 12C24.4138 12.0002 28.0024 15.5886 28.0024 20C28.0024 24.4113 24.4138 27.9998 20.0024 28C18.3752 28 16.8651 27.5158 15.6001 26.6787L12.5239 27.6611L13.521 24.6895C12.5616 23.3725 11.9976 21.7495 11.9976 20C11.9976 15.5885 15.5861 12 19.9976 12H20.0024ZM16.9878 15.6592C16.6821 15.6592 16.3623 15.749 16.1694 15.9463C15.9344 16.1861 15.3511 16.7459 15.3511 17.8936C15.3511 19.0412 16.1875 20.1513 16.3003 20.3066C16.4179 20.4617 17.9332 22.8505 20.2847 23.8242C22.1233 24.586 22.6689 24.5151 23.0874 24.4258C23.6986 24.2941 24.4646 23.843 24.6577 23.2979C24.8506 22.7522 24.851 22.2863 24.7944 22.1875C24.7381 22.0888 24.5829 22.0326 24.3481 21.915C24.1131 21.7974 22.9698 21.2325 22.7534 21.1572C22.5417 21.0773 22.339 21.1063 22.1792 21.332C21.9536 21.6469 21.7329 21.9665 21.5542 22.1592C21.4131 22.3097 21.1824 22.329 20.9897 22.249C20.731 22.141 20.0065 21.8866 19.1128 21.0918C18.4214 20.4758 17.9513 19.7089 17.8149 19.4785C17.6788 19.2438 17.8008 19.1072 17.9087 18.9805C18.0263 18.8346 18.1398 18.7311 18.2573 18.5947C18.3749 18.4584 18.4409 18.3875 18.5161 18.2275C18.5961 18.0724 18.5393 17.9125 18.4829 17.7949C18.4265 17.6773 17.9561 16.5301 17.7632 16.0645C17.608 15.6929 17.4904 15.6785 17.2554 15.6689C17.1663 15.6632 17.0771 15.6596 16.9878 15.6592Z" fill="white"/>
</svg>
